<svg xmlns="http://www.w3.org/2000/svg" width="128" height="128" viewBox="0 0 128 128">
  <g id="icon-tetris" transform="translate(-11384 -278)">
    <rect id="Rectangle_193" data-name="Rectangle 193" width="128" height="128" transform="translate(11384 278)" fill="#171717"/>
    <rect id="Rectangle_194" data-name="Rectangle 194" width="25.6" height="25.6" transform="translate(11408 380)" fill="red"/>
    <rect id="Rectangle_199" data-name="Rectangle 199" width="25.6" height="25.6" transform="translate(11408 380)" fill="#00d3ff"/>
    <rect id="Rectangle_200" data-name="Rectangle 200" width="25.6" height="25.6" transform="translate(11463 279)" fill="red"/>
    <rect id="Rectangle_209" data-name="Rectangle 209" width="25.6" height="25.6" transform="translate(11463 279)" fill="#fff"/>
    <rect id="Rectangle_195" data-name="Rectangle 195" width="25.6" height="25.6" transform="translate(11434 380)" fill="#9a00ff"/>
    <rect id="Rectangle_201" data-name="Rectangle 201" width="25.6" height="25.6" transform="translate(11437 279)" fill="#fff"/>
    <rect id="Rectangle_196" data-name="Rectangle 196" width="25.6" height="25.6" transform="translate(11460 380)" fill="#ce00ff"/>
    <rect id="Rectangle_202" data-name="Rectangle 202" width="25.6" height="25.6" transform="translate(11411 279)" fill="red"/>
    <rect id="Rectangle_208" data-name="Rectangle 208" width="25.6" height="25.6" transform="translate(11411 279)" fill="#fff"/>
    <rect id="Rectangle_197" data-name="Rectangle 197" width="25.6" height="25.6" transform="translate(11486 354)" fill="#ff00f7"/>
    <rect id="Rectangle_205" data-name="Rectangle 205" width="25.6" height="25.6" transform="translate(11486 328)" fill="#ff00f7"/>
    <rect id="Rectangle_206" data-name="Rectangle 206" width="25.6" height="25.6" transform="translate(11460 328)" fill="#ce00ff"/>
    <rect id="Rectangle_204" data-name="Rectangle 204" width="25.6" height="25.6" transform="translate(11385 305)" fill="#fff"/>
    <rect id="Rectangle_207" data-name="Rectangle 207" width="25.6" height="25.6" transform="translate(11385 331)" fill="#fff"/>
    <rect id="Rectangle_198" data-name="Rectangle 198" width="25.6" height="25.6" transform="translate(11486 380)" fill="#ff00f7"/>
    <rect id="Rectangle_203" data-name="Rectangle 203" width="25.6" height="25.6" transform="translate(11385 279)" fill="#fff"/>
  </g>
</svg>
