<svg xmlns="http://www.w3.org/2000/svg" width="1280" height="360" viewBox="0 0 1280 360">
  <g id="tetris" transform="translate(-9984 -69)">
    <rect id="Rectangle_18" data-name="Rectangle 18" width="1280" height="360" transform="translate(9984 69)" fill="#101010"/>
    <rect id="Rectangle_19" data-name="Rectangle 19" width="37" height="38" transform="translate(10809 317)" fill="#8000ff"/>
    <g id="Rectangle_41" data-name="Rectangle 41" transform="translate(10439 317)" stroke="#0fe" stroke-width="5">
      <rect width="37" height="38" stroke="none"/>
      <rect x="2.5" y="2.5" width="32" height="33" fill="none"/>
    </g>
    <rect id="Rectangle_81" data-name="Rectangle 81" width="37" height="38" transform="translate(11142 317)" fill="#b9b9b9"/>
    <rect id="Rectangle_66" data-name="Rectangle 66" width="37" height="38" transform="translate(10106 317)" fill="#ff4b4b"/>
    <rect id="Rectangle_105" data-name="Rectangle 105" width="37" height="38" transform="translate(10217 205)" fill="#43ffa7"/>
    <rect id="Rectangle_28" data-name="Rectangle 28" width="37" height="38" transform="translate(10920 317)" fill="#b9b9b9"/>
    <rect id="Rectangle_34" data-name="Rectangle 34" width="37" height="37" transform="translate(10587 355)" fill="#b9b9b9"/>
    <rect id="Rectangle_86" data-name="Rectangle 86" width="37" height="37" transform="translate(10994 355)" fill="#ffe854"/>
    <rect id="Rectangle_58" data-name="Rectangle 58" width="37" height="37" transform="translate(10661 355)" fill="#b9b9b9"/>
    <rect id="Rectangle_64" data-name="Rectangle 64" width="37" height="37" transform="translate(10624 355)" fill="#7fff5a"/>
    <rect id="Rectangle_98" data-name="Rectangle 98" width="37" height="37" transform="translate(10957 355)" fill="#b9b9b9"/>
    <rect id="Rectangle_53" data-name="Rectangle 53" width="37" height="37" transform="translate(10587 243)" fill="#b9b9b9"/>
    <rect id="Rectangle_87" data-name="Rectangle 87" width="37" height="37" transform="translate(10994 243)" fill="#b9b9b9"/>
    <rect id="Rectangle_51" data-name="Rectangle 51" width="37" height="38" transform="translate(10587 317)" fill="#b9b9b9"/>
    <rect id="Rectangle_88" data-name="Rectangle 88" width="37" height="38" transform="translate(10994 317)" fill="#b9b9b9"/>
    <rect id="Rectangle_59" data-name="Rectangle 59" width="37" height="38" transform="translate(10661 317)" fill="#b9b9b9"/>
    <rect id="Rectangle_65" data-name="Rectangle 65" width="37" height="38" transform="translate(10624 317)" fill="#7fff5a"/>
    <rect id="Rectangle_99" data-name="Rectangle 99" width="37" height="38" transform="translate(10957 317)" fill="#b9b9b9"/>
    <rect id="Rectangle_52" data-name="Rectangle 52" width="37" height="38" transform="translate(10587 205)" fill="#b9b9b9"/>
    <g id="Rectangle_89" data-name="Rectangle 89" transform="translate(10994 205)" fill="none" stroke="#f7ff00" stroke-width="5">
      <rect width="37" height="38" stroke="none"/>
      <rect x="2.5" y="2.5" width="32" height="33" fill="none"/>
    </g>
    <g id="Rectangle_55" data-name="Rectangle 55" transform="translate(10587 167)" fill="none" stroke="#f7ff00" stroke-width="5">
      <rect width="37" height="38" stroke="none"/>
      <rect x="2.5" y="2.5" width="32" height="33" fill="none"/>
    </g>
    <rect id="Rectangle_22" data-name="Rectangle 22" width="37" height="38" transform="translate(10809 205)" fill="#b9b9b9"/>
    <rect id="Rectangle_20" data-name="Rectangle 20" width="37" height="37" transform="translate(10809 355)" fill="#ffe854"/>
    <g id="Rectangle_42" data-name="Rectangle 42" transform="translate(10439 355)" fill="none" stroke="#b400ff" stroke-width="5">
      <rect width="37" height="37" stroke="none"/>
      <rect x="2.5" y="2.5" width="32" height="32" fill="none"/>
    </g>
    <rect id="Rectangle_83" data-name="Rectangle 83" width="37" height="37" transform="translate(11142 355)" fill="#b9b9b9"/>
    <rect id="Rectangle_67" data-name="Rectangle 67" width="37" height="37" transform="translate(10106 355)" fill="#ff4b4b"/>
    <rect id="Rectangle_29" data-name="Rectangle 29" width="37" height="37" transform="translate(10920 355)" fill="#b9b9b9"/>
    <rect id="Rectangle_35" data-name="Rectangle 35" width="37" height="37" transform="translate(10550 355)" fill="#b9b9b9"/>
    <rect id="Rectangle_84" data-name="Rectangle 84" width="37" height="37" transform="translate(11031 355)" fill="#b9b9b9"/>
    <rect id="Rectangle_108" data-name="Rectangle 108" width="37" height="37" transform="translate(11105 243)" fill="#0ef"/>
    <rect id="Rectangle_77" data-name="Rectangle 77" width="37" height="37" transform="translate(9995 355)" fill="#faff60"/>
    <rect id="Rectangle_50" data-name="Rectangle 50" width="37" height="38" transform="translate(10550 317)" fill="#b9b9b9"/>
    <rect id="Rectangle_82" data-name="Rectangle 82" width="37" height="38" transform="translate(11031 317)" fill="#b9b9b9"/>
    <rect id="Rectangle_107" data-name="Rectangle 107" width="37" height="38" transform="translate(11105 280)" fill="#0ef"/>
    <rect id="Rectangle_78" data-name="Rectangle 78" width="37" height="38" transform="translate(9995 317)" fill="#faff60"/>
    <rect id="Rectangle_31" data-name="Rectangle 31" width="37" height="37" transform="translate(10883 355)" fill="#ffe854"/>
    <rect id="Rectangle_37" data-name="Rectangle 37" width="37" height="37" transform="translate(10513 355)" fill="#b9b9b9"/>
    <rect id="Rectangle_85" data-name="Rectangle 85" width="37" height="37" transform="translate(11068 355)" fill="#b9b9b9"/>
    <rect id="Rectangle_109" data-name="Rectangle 109" width="37" height="37" transform="translate(11068 243)" fill="#0ef"/>
    <rect id="Rectangle_69" data-name="Rectangle 69" width="37" height="37" transform="translate(10032 355)" fill="#faff60"/>
    <rect id="Rectangle_23" data-name="Rectangle 23" width="37" height="37" transform="translate(10809 243)" fill="#b9b9b9"/>
    <rect id="Rectangle_21" data-name="Rectangle 21" width="37" height="37" transform="translate(10809 392)" fill="#00ffdc"/>
    <g id="Rectangle_43" data-name="Rectangle 43" transform="translate(10439 392)" fill="none" stroke="#b400ff" stroke-width="5">
      <rect width="37" height="37" stroke="none"/>
      <rect x="2.5" y="2.5" width="32" height="32" fill="none"/>
    </g>
    <rect id="Rectangle_90" data-name="Rectangle 90" width="37" height="37" transform="translate(11142 392)" fill="#b9b9b9"/>
    <rect id="Rectangle_70" data-name="Rectangle 70" width="37" height="37" transform="translate(10106 392)" fill="#0cf"/>
    <rect id="Rectangle_60" data-name="Rectangle 60" width="37" height="37" transform="translate(10291 392)" fill="#ff46ff"/>
    <rect id="Rectangle_71" data-name="Rectangle 71" width="37" height="37" transform="translate(10254 392)" fill="#ff46ff"/>
    <rect id="Rectangle_45" data-name="Rectangle 45" width="37" height="37" transform="translate(10624 392)" fill="#7fff5a"/>
    <rect id="Rectangle_100" data-name="Rectangle 100" width="37" height="37" transform="translate(10957 392)" fill="#b9b9b9"/>
    <rect id="Rectangle_30" data-name="Rectangle 30" width="37" height="37" transform="translate(10920 392)" fill="#00ffdc"/>
    <rect id="Rectangle_38" data-name="Rectangle 38" width="37" height="37" transform="translate(10550 392)" fill="#b9b9b9"/>
    <rect id="Rectangle_91" data-name="Rectangle 91" width="37" height="37" transform="translate(11031 392)" fill="#b9b9b9"/>
    <rect id="Rectangle_79" data-name="Rectangle 79" width="37" height="37" transform="translate(9995 392)" fill="#0cf"/>
    <rect id="Rectangle_63" data-name="Rectangle 63" width="37" height="37" transform="translate(10402 392)" fill="#ff46ff"/>
    <rect id="Rectangle_92" data-name="Rectangle 92" width="37" height="37" transform="translate(11179 392)" fill="#b9b9b9"/>
    <rect id="Rectangle_72" data-name="Rectangle 72" width="37" height="37" transform="translate(10143 392)" fill="#ff46ff"/>
    <rect id="Rectangle_48" data-name="Rectangle 48" width="37" height="37" transform="translate(10735 392)" fill="#00ffdc"/>
    <rect id="Rectangle_32" data-name="Rectangle 32" width="37" height="37" transform="translate(10883 392)" fill="#00ffdc"/>
    <rect id="Rectangle_39" data-name="Rectangle 39" width="37" height="37" transform="translate(10513 392)" fill="#b9b9b9"/>
    <rect id="Rectangle_93" data-name="Rectangle 93" width="37" height="37" transform="translate(11068 392)" fill="#b9b9b9"/>
    <rect id="Rectangle_73" data-name="Rectangle 73" width="37" height="37" transform="translate(10032 392)" fill="#0cf"/>
    <rect id="Rectangle_62" data-name="Rectangle 62" width="37" height="37" transform="translate(10365 392)" fill="#ff46ff"/>
    <g id="Rectangle_94" data-name="Rectangle 94" transform="translate(11216 392)" fill="none" stroke="#f7ff00" stroke-width="5">
      <rect width="37" height="37" stroke="none"/>
      <rect x="2.5" y="2.5" width="32" height="32" fill="none"/>
    </g>
    <rect id="Rectangle_74" data-name="Rectangle 74" width="37" height="37" transform="translate(10180 392)" fill="#ff46ff"/>
    <rect id="Rectangle_47" data-name="Rectangle 47" width="37" height="37" transform="translate(10698 392)" fill="#b9b9b9"/>
    <rect id="Rectangle_33" data-name="Rectangle 33" width="37" height="37" transform="translate(10846 392)" fill="#00ffdc"/>
    <rect id="Rectangle_40" data-name="Rectangle 40" width="37" height="37" transform="translate(10476 392)" fill="#b9b9b9"/>
    <rect id="Rectangle_95" data-name="Rectangle 95" width="37" height="37" transform="translate(11105 392)" fill="#b9b9b9"/>
    <rect id="Rectangle_75" data-name="Rectangle 75" width="37" height="37" transform="translate(10069 392)" fill="#0cf"/>
    <rect id="Rectangle_61" data-name="Rectangle 61" width="37" height="37" transform="translate(10328 392)" fill="#ff46ff"/>
    <rect id="Rectangle_76" data-name="Rectangle 76" width="37" height="37" transform="translate(10217 392)" fill="#ff46ff"/>
    <rect id="Rectangle_46" data-name="Rectangle 46" width="37" height="37" transform="translate(10661 392)" fill="#7fff5a"/>
    <rect id="Rectangle_24" data-name="Rectangle 24" width="37" height="37" transform="translate(10809 280)" fill="#b9b9b9"/>
    <g id="Rectangle_44" data-name="Rectangle 44" transform="translate(10439 280)" stroke="#0fe" stroke-width="5">
      <rect width="37" height="37" stroke="none"/>
      <rect x="2.5" y="2.5" width="32" height="32" fill="none"/>
    </g>
    <rect id="Rectangle_80" data-name="Rectangle 80" width="37" height="37" transform="translate(11142 280)" fill="#b9b9b9"/>
    <rect id="Rectangle_68" data-name="Rectangle 68" width="37" height="37" transform="translate(10106 280)" fill="#ff4b4b"/>
    <rect id="Rectangle_104" data-name="Rectangle 104" width="37" height="37" transform="translate(10217 168)" fill="#43ffa7"/>
    <rect id="Rectangle_102" data-name="Rectangle 102" width="37" height="37" transform="translate(10106 243)" fill="#ff4b4b"/>
    <rect id="Rectangle_103" data-name="Rectangle 103" width="37" height="37" transform="translate(10217 131)" fill="#43ffa7"/>
    <rect id="Rectangle_106" data-name="Rectangle 106" width="37" height="37" transform="translate(10254 131)" fill="#43ffa7"/>
    <rect id="Rectangle_27" data-name="Rectangle 27" width="37" height="37" transform="translate(10920 280)" fill="#8000ff"/>
    <rect id="Rectangle_36" data-name="Rectangle 36" width="37" height="37" transform="translate(10587 392)" fill="#b9b9b9"/>
    <rect id="Rectangle_96" data-name="Rectangle 96" width="37" height="37" transform="translate(10994 392)" fill="#b9b9b9"/>
    <rect id="Rectangle_54" data-name="Rectangle 54" width="37" height="37" transform="translate(10587 280)" fill="#b9b9b9"/>
    <rect id="Rectangle_97" data-name="Rectangle 97" width="37" height="37" transform="translate(10994 280)" fill="#b9b9b9"/>
    <rect id="Rectangle_56" data-name="Rectangle 56" width="37" height="37" transform="translate(10624 280)" fill="#b9b9b9"/>
    <rect id="Rectangle_101" data-name="Rectangle 101" width="37" height="37" transform="translate(10957 280)" fill="#b9b9b9"/>
    <rect id="Rectangle_57" data-name="Rectangle 57" width="37" height="37" transform="translate(10661 280)" fill="#b9b9b9"/>
    <rect id="Rectangle_49" data-name="Rectangle 49" width="37" height="37" transform="translate(10772 392)" fill="#00ffdc"/>
  </g>
</svg>
